<?xml version="1.0" encoding="UTF-8"?>
<svg xmlns="http://www.w3.org/2000/svg" viewBox="0 0 40.0000 49.9649" fill="currentColor" aria-hidden="true">
  <path fill="currentColor" d="M39.4386,0.2807L38.1754,0.7018L37.0526,0.1404L35.5088,0.1404L34.3860,0.9825L33.1228,1.2632L30.4561,3.5088L30.0351,4.2105L28.9123,4.4912L28.7719,5.8947L28.3509,6.7368L27.9298,7.0175L27.6491,8.0000L26.5263,8.4211L26.5263,9.4035L25.4035,10.9474L24.2807,11.3684L24.4211,12.6316L24.1404,13.1930L23.4386,13.6140L22.0351,15.4386L20.4912,16.2807L19.3684,16.0000L18.5263,15.1579L16.1404,13.6140L15.8596,12.7719L15.1579,11.9298L15.1579,10.8070L13.8947,10.1053L12.6316,7.7193L12.7719,7.0175L11.3684,6.4561L10.9474,5.8947L11.0877,4.9123L10.2456,4.4912L8.4211,2.3860L7.1579,1.6842L6.7368,0.0000L5.6140,0.0000L4.4912,0.7018L3.2281,0.1404L2.1053,0.5614L1.1228,0.2807L0.1404,0.5614L0.8421,1.9649L0.0000,3.2281L1.2632,3.6491L3.0877,6.0351L3.0877,7.1579L4.9123,7.7193L5.4737,8.8421L6.1754,9.2632L6.4561,10.2456L7.0175,10.5263L7.7193,11.6491L10.3860,14.0351L10.9474,15.4386L10.6667,16.5614L11.0877,16.8421L11.7895,16.7018L13.6140,17.2632L14.4561,18.2456L14.4561,19.0877L14.7368,19.5088L14.4561,20.4912L15.1579,21.0526L16.0000,23.0175L16.0000,24.5614L15.4386,25.6842L15.5789,26.3860L15.2982,26.9474L15.4386,28.2105L15.1579,28.9123L15.1579,30.1754L15.4386,30.8772L15.0175,31.8596L16.1404,34.2456L16.1404,34.8070L17.9649,37.7544L17.9649,39.5789L19.0877,40.1404L19.6491,41.2632L19.7895,42.5263L20.4912,43.3684L20.4912,43.7895L19.5088,45.6140L18.2456,46.3158L18.2456,46.7368L17.2632,48.2807L17.6842,49.5439L18.1053,49.8246L19.7895,48.1404L20.6316,47.8596L21.6140,46.5965L22.5965,46.0351L22.8772,45.0526L23.5789,44.4912L24.2807,42.9474L24.8421,39.8596L24.5614,39.1579L24.8421,36.4912L24.4211,35.0877L24.8421,32.9825L24.2807,32.7018L23.8596,32.0000L24.1404,30.8772L23.5789,30.5965L22.8772,29.6140L22.7368,27.5088L23.7193,24.9825L24.8421,24.4211L24.5614,22.1754L24.8421,21.7544L24.9825,20.4912L26.1053,18.5263L26.9474,17.8246L27.5088,16.8421L28.0702,16.4211L28.7719,16.4211L29.1930,16.1404L29.0526,15.2982L29.6140,14.3158L30.7368,13.8947L30.7368,13.0526L31.2982,11.9298L33.5439,11.0877L33.8246,10.1053L34.9474,9.4035L34.9474,8.4211L36.9123,7.1579L36.7719,6.3158L37.0526,5.7544L37.6140,5.3333L37.8947,4.2105L39.0175,3.2281L39.1579,1.6842L39.8596,0.8421L39.8596,0.5614Z"/>
</svg>
